HIERARCHY
ROOT Hips
{
	OFFSET 0.000000 0.000000 0.000000
	CHANNELS 6 Xposition Yposition Zposition Xrotation Yrotation Zrotation
	JOINT LeftUpLeg_virtual
	{
		OFFSET 0.000000 0.000000 0.000000
		CHANNELS 3 Xrotation Yrotation Zrotation
		JOINT LeftUpLeg
		{
			OFFSET 13.026900 -6.336304 -1.092800
			CHANNELS 3 Xrotation Yrotation Zrotation
			JOINT LeftLeg
			{
				OFFSET 0.524474 -46.096886 9.782700
				CHANNELS 3 Xrotation Yrotation Zrotation
				JOINT LeftFoot
				{
					OFFSET -0.524474 -53.427422 -12.948200
					CHANNELS 3 Xrotation Yrotation Zrotation
					JOINT LeftToeBase
					{
						OFFSET 0.192200 -14.009700 16.364100
						CHANNELS 3 Xrotation Yrotation Zrotation
						JOINT LeftToe_End
						{
							OFFSET -1.784700 -0.561700 9.474800
							CHANNELS 3 Xrotation Yrotation Zrotation
							End Site
							{
								OFFSET 0 0 0
							}
						}
					}
				}
			}
		}
	}
	JOINT RightUpLeg_virtual
	{
		OFFSET 0.000000 0.000000 0.000000
		CHANNELS 3 Xrotation Yrotation Zrotation
		JOINT RightUpLeg
		{
			OFFSET -12.883000 -6.336304 -1.092800
			CHANNELS 3 Xrotation Yrotation Zrotation
			JOINT RightLeg
			{
				OFFSET -0.524587 -46.096825 9.782800
				CHANNELS 3 Xrotation Yrotation Zrotation
				JOINT RightFoot
				{
					OFFSET 0.524587 -53.427383 -12.948300
					CHANNELS 3 Xrotation Yrotation Zrotation
					JOINT RightToeBase
					{
						OFFSET -0.192200 -14.009700 16.364100
						CHANNELS 3 Xrotation Yrotation Zrotation
						JOINT RightToe_End
						{
							OFFSET 1.784700 -0.561700 9.474800
							CHANNELS 3 Xrotation Yrotation Zrotation
							End Site
							{
								OFFSET 0 0 0
							}
						}
					}
				}
			}
		}
	}
	JOINT Spine_virtual
	{
		OFFSET 0.000000 0.000000 0.000000
		CHANNELS 3 Xrotation Yrotation Zrotation
		JOINT Spine
		{
			OFFSET 0.072000 7.257294 -0.789700
			CHANNELS 3 Xrotation Yrotation Zrotation
			JOINT Spine1
			{
				OFFSET 0.000000 12.508769 -0.658067
				CHANNELS 3 Xrotation Yrotation Zrotation
				JOINT Spine1_split
				{
					OFFSET 0.000000 12.508769 -0.658067
					CHANNELS 3 Xrotation Yrotation Zrotation
					JOINT Spine2
					{
						OFFSET 0.000000 12.508769 -0.658067
						CHANNELS 3 Xrotation Yrotation Zrotation
						JOINT Neck_virtual
						{
							OFFSET 0.000000 0.000000 0.000000
							CHANNELS 3 Xrotation Yrotation Zrotation
							JOINT Neck
							{
								OFFSET 0.000000 14.033295 7.520400
								CHANNELS 3 Xrotation Yrotation Zrotation
								JOINT Head
								{
									OFFSET 0.000000 8.198502 5.703100
									CHANNELS 3 Xrotation Yrotation Zrotation
									JOINT HeadTop_End
									{
										OFFSET 0.000000 17.760803 13.332701
										CHANNELS 3 Xrotation Yrotation Zrotation
										End Site
										{
											OFFSET 0 0 0
										}
									}
								}
							}
						}
						JOINT LeftShoulder_virtual
						{
							OFFSET 0.000000 0.000000 0.000000
							CHANNELS 3 Xrotation Yrotation Zrotation
							JOINT LeftShoulder
							{
								OFFSET 6.292450 5.785301 -0.669000
								CHANNELS 3 Xrotation Yrotation Zrotation
								JOINT LeftShoulder_split
								{
									OFFSET 6.292450 5.785301 -0.669000
									CHANNELS 3 Xrotation Yrotation Zrotation
									JOINT LeftArm
									{
										OFFSET 13.907140 -6.093903 1.965100
										CHANNELS 3 Xrotation Yrotation Zrotation
										JOINT LeftForeArm
										{
											OFFSET 34.140198 0.000000 0.000000
											CHANNELS 3 Xrotation Yrotation Zrotation
											JOINT LeftHand
											{
												OFFSET 40.960209 0.000000 0.000000
												CHANNELS 3 Xrotation Yrotation Zrotation
												End Site
												{
													OFFSET 0 0 0
												}
											}
										}
									}
								}
							}
						}
						JOINT RightShoulder_virtual
						{
							OFFSET 0.000000 0.000000 0.000000
							CHANNELS 3 Xrotation Yrotation Zrotation
							JOINT RightShoulder
							{
								OFFSET -6.292450 5.785301 -0.669000
								CHANNELS 3 Xrotation Yrotation Zrotation
								JOINT RightShoulder_split
								{
									OFFSET -6.292450 5.785301 -0.669000
									CHANNELS 3 Xrotation Yrotation Zrotation
									JOINT RightArm
									{
										OFFSET -13.907140 -6.093903 1.965100
										CHANNELS 3 Xrotation Yrotation Zrotation
										JOINT RightForeArm
										{
											OFFSET -34.140198 0.000000 0.000000
											CHANNELS 3 Xrotation Yrotation Zrotation
											JOINT RightHand
											{
												OFFSET -40.960209 0.000000 0.000000
												CHANNELS 3 Xrotation Yrotation Zrotation
												End Site
												{
													OFFSET 0 0 0
												}
											}
										}
									}
								}
							}
						}
					}
				}
			}
		}
	}
}
MOTION
Frames: 9
Frame Time: 0.03333333
-0.086472 94.437401 -0.201279 0.000000 0.000000 0.000000 -5.063631 -42.715750 0.286868 -35.128155 6.483448 17.928813 57.657370 -6.297148 4.338442 -19.835160 -8.000511 -15.614774 -1.594214 0.000010 -0.000005 0.000000 0.000000 0.000000 -5.063631 -42.715750 0.286868 -25.768632 -8.628925 -30.098134 57.305622 -8.678642 -7.474909 -21.898920 -6.124265 22.963678 -1.421722 -0.000013 -0.000002 0.000000 0.000000 0.000000 -5.063631 -42.715750 0.286868 9.462522 7.384462 -1.700424 2.187716 0.989894 -0.914786 0.000000 0.000000 0.000000 0.000000 0.000000 0.000000 2.202829 0.982775 -0.893562 0.084652 13.220554 4.538681 8.920924 20.138135 -4.130233 0.000000 0.000000 0.000000 2.202829 0.982775 -0.893562 1.117178 3.546345 -8.633310 0.000000 0.000000 0.000000 -53.487027 4.935510 -51.502983 -179.999896 -73.641932 -179.999896 0.000000 0.000000 0.000000 2.202829 0.982775 -0.893562 3.036126 13.027192 -5.371405 0.000000 0.000000 0.000000 -48.713739 27.172835 83.457084 -179.999991 74.011698 179.999978 0.000000 0.000000 0.000000 
-0.090729 94.525352 -0.110153 0.000000 0.000000 0.000000 -4.918937 -42.720436 0.181890 -35.209540 6.442751 18.391978 57.562847 -6.211322 3.990827 -19.835163 -8.259697 -15.524853 -1.594214 0.000010 -0.000005 0.000000 0.000000 0.000000 -4.918937 -42.720436 0.181890 -25.890495 -9.055560 -30.173590 57.122563 -8.219709 -7.320920 -21.886602 -6.084454 22.626345 -1.421722 -0.000013 -0.000002 0.000000 0.000000 0.000000 -4.918937 -42.720436 0.181890 9.417670 7.444407 -1.722086 2.160458 1.014523 -0.917779 0.000000 0.000000 0.000000 0.000000 0.000000 0.000000 2.175227 1.007279 -0.896828 -0.002261 13.274976 4.469524 8.607456 20.275410 -3.937012 0.000000 0.000000 0.000000 2.175227 1.007279 -0.896828 1.001846 3.254864 -7.755001 0.000000 0.000000 0.000000 -53.008948 4.373905 -50.549291 -179.999814 -73.314390 -179.999800 0.000000 0.000000 0.000000 2.175227 1.007279 -0.896828 2.949115 12.677379 -5.252450 0.000000 0.000000 0.000000 -49.612701 28.281054 83.025847 -179.999923 74.211330 179.999923 0.000000 0.000000 0.000000 
-0.098269 94.685585 0.077984 0.000000 0.000000 0.000000 -4.746814 -42.912340 0.127814 -35.191392 6.668199 18.823134 57.424440 -6.694345 3.636991 -19.829861 -8.055699 -15.108486 -1.594214 0.000008 -0.000005 0.000000 0.000000 0.000000 -4.746814 -42.912340 0.127814 -25.820200 -9.120939 -30.251960 56.861065 -7.462120 -6.838101 -21.817661 -6.349380 22.080373 -1.421722 -0.000014 -0.000001 0.000000 0.000000 0.000000 -4.746814 -42.912340 0.127814 9.335250 7.403265 -1.779503 2.116462 1.001622 -0.938756 0.000000 0.000000 0.000000 0.000000 0.000000 0.000000 2.131455 0.993927 -0.918455 -0.160922 13.383824 4.389431 7.954197 20.680836 -3.679495 0.000000 0.000000 0.000000 2.131455 0.993927 -0.918455 0.882103 2.965733 -6.781121 0.000000 0.000000 0.000000 -52.480315 4.371684 -50.014743 -179.999978 -72.505655 -179.999978 0.000000 0.000000 0.000000 2.131455 0.993927 -0.918455 2.865107 12.349324 -5.101036 0.000000 0.000000 0.000000 -50.475180 29.672889 82.603843 179.999964 74.347770 -179.999964 0.000000 0.000000 0.000000 
-0.081641 94.952843 0.394341 0.000000 0.000000 0.000000 -4.530245 -43.405821 0.150894 -35.039072 7.293063 19.265399 57.169636 -7.498765 3.275486 -19.856410 -7.518752 -14.445727 -1.594214 0.000012 -0.000005 0.000000 0.000000 0.000000 -4.530245 -43.405821 0.150894 -25.691162 -8.935089 -30.354006 56.401260 -6.468848 -6.223706 -21.630620 -6.698856 21.431259 -1.421722 -0.000013 -0.000002 0.000000 0.000000 0.000000 -4.530245 -43.405821 0.150894 9.203098 7.297462 -1.886472 2.049153 0.967110 -0.982518 0.000000 0.000000 0.000000 0.000000 0.000000 0.000000 2.064603 0.958721 -0.963082 -0.397989 13.551846 4.310265 6.833766 21.403038 -3.318830 0.000000 0.000000 0.000000 2.064603 0.958721 -0.963082 0.760005 2.691010 -5.709708 0.000000 0.000000 0.000000 -51.890979 4.777265 -49.666748 -179.999855 -71.344925 -179.999868 0.000000 0.000000 0.000000 2.064603 0.958721 -0.963082 2.789647 12.065799 -4.922058 0.000000 0.000000 0.000000 -51.267987 31.359068 82.088144 -179.999964 74.448775 180.000005 0.000000 0.000000 0.000000 
-0.021391 95.316750 0.849262 0.000000 0.000000 0.000000 -4.273212 -44.362690 0.235516 -34.689769 8.273153 19.779678 56.792961 -8.407838 2.835357 -19.973910 -6.718556 -13.633246 -1.594214 0.000007 -0.000005 0.000000 0.000000 0.000000 -4.273212 -44.362690 0.235516 -25.651044 -8.537976 -30.461278 55.713136 -5.404432 -5.662267 -21.292300 -6.834975 20.800561 -1.421721 -0.000013 -0.000002 0.000000 0.000000 0.000000 -4.273212 -44.362690 0.235516 9.016374 7.184072 -2.035814 1.956325 0.934489 -1.039519 0.000000 0.000000 0.000000 0.000000 0.000000 0.000000 1.971918 0.925420 -1.021211 -0.684143 13.764213 4.208536 5.252510 22.328102 -2.839951 0.000000 0.000000 0.000000 1.971918 0.925420 -1.021211 0.637437 2.468926 -4.579883 0.000000 0.000000 0.000000 -51.272939 5.449271 -49.266930 179.999978 -69.923235 179.999978 0.000000 0.000000 0.000000 1.971918 0.925420 -1.021211 2.719010 11.806951 -4.709300 0.000000 0.000000 0.000000 -52.079465 33.374821 81.488801 -179.999800 74.627432 179.999814 0.000000 0.000000 0.000000 
0.105202 95.727684 1.446148 0.000000 0.000000 0.000000 -4.060474 -45.917193 0.359155 -34.049384 9.595151 20.286447 56.359190 -9.408634 2.313156 -20.254566 -5.496252 -12.669366 -1.594214 0.000010 -0.000005 0.000000 0.000000 0.000000 -4.060474 -45.917193 0.359155 -25.713355 -7.775095 -30.535023 54.871827 -4.279324 -5.224272 -20.787300 -6.773504 20.246286 -1.421722 -0.000012 -0.000002 0.000000 0.000000 0.000000 -4.060474 -45.917193 0.359155 8.827663 7.202813 -2.208999 1.863550 0.958204 -1.094342 0.000000 0.000000 0.000000 0.000000 0.000000 0.000000 1.878251 0.948851 -1.077122 -1.022866 14.018706 4.028361 3.556166 23.284578 -2.214760 0.000000 0.000000 0.000000 1.878251 0.948851 -1.077122 0.511944 2.340395 -3.391968 0.000000 0.000000 0.000000 -50.648185 6.283235 -48.819491 180.000005 -68.268185 179.999991 0.000000 0.000000 0.000000 1.878251 0.948851 -1.077122 2.639990 11.492016 -4.490693 0.000000 0.000000 0.000000 -53.050841 35.590244 80.947154 -179.999978 74.978566 179.999964 0.000000 0.000000 0.000000 
0.347592 96.223938 2.204983 0.000000 0.000000 0.000000 -3.633838 -48.790968 0.716281 -33.090907 11.581312 21.102921 55.715308 -9.494381 1.620014 -20.827846 -4.525786 -12.028773 -1.594214 0.000012 -0.000005 0.000000 0.000000 0.000000 -3.633838 -48.790968 0.716281 -26.382628 -6.347715 -30.277426 53.806793 -3.089016 -5.267656 -19.934273 -6.227883 19.829270 -1.421721 -0.000013 -0.000002 0.000000 0.000000 0.000000 -3.633838 -48.790968 0.716281 8.514664 7.644872 -2.427598 1.723158 1.157241 -1.149287 0.000000 0.000000 0.000000 0.000000 0.000000 0.000000 1.734677 1.147993 -1.132964 -1.501758 14.315635 3.851293 2.019821 24.423787 -1.787589 0.000000 0.000000 0.000000 1.734677 1.147993 -1.132964 0.377426 2.392689 -2.190963 0.000000 0.000000 0.000000 -49.753126 7.092118 -47.553177 179.999978 -66.469086 179.999950 0.000000 0.000000 0.000000 1.734677 1.147993 -1.132964 2.536058 11.010395 -4.345438 0.000000 0.000000 0.000000 -54.236002 37.996363 80.791965 -179.999841 75.511580 179.999841 0.000000 0.000000 0.000000 
0.692777 96.832970 3.021217 0.000000 0.000000 0.000000 -2.448280 -53.271842 1.570095 -32.134466 14.236809 22.301008 54.841600 -9.592202 0.692129 -21.595649 -2.723444 -11.340193 -1.594214 0.000008 -0.000005 0.000000 0.000000 0.000000 -2.448280 -53.271842 1.570095 -28.283897 -4.650619 -29.057052 52.488030 -1.219828 -6.277940 -18.631259 -5.521430 19.270395 -1.421722 -0.000012 -0.000002 0.000000 0.000000 0.000000 -2.448280 -53.271842 1.570095 7.938007 8.378669 -2.642676 1.492040 1.476181 -1.218452 0.000000 0.000000 0.000000 0.000000 0.000000 0.000000 1.499630 1.466410 -1.201849 -2.301723 14.671057 3.827689 0.603027 26.230447 -2.159941 0.000000 0.000000 0.000000 1.499630 1.466410 -1.201849 0.173059 3.039242 -0.844239 0.000000 0.000000 0.000000 -49.092022 6.962145 -44.601402 -179.999909 -67.375021 -179.999896 0.000000 0.000000 0.000000 1.499630 1.466410 -1.201849 2.392599 10.277357 -4.323734 0.000000 0.000000 0.000000 -56.028288 40.818337 81.349780 -179.999677 76.278569 179.999677 0.000000 0.000000 0.000000 
1.088654 97.443069 3.793995 0.000000 0.000000 0.000000 -0.593809 -58.021617 2.677909 -31.307026 16.206116 23.334295 54.006712 -9.661586 -0.271342 -22.437375 -0.058395 -10.666741 -1.594214 0.000011 -0.000005 0.000000 0.000000 0.000000 -0.593809 -58.021617 2.677909 -30.796329 -3.818835 -26.937204 51.097222 1.629468 -7.997223 -17.122366 -5.307348 18.434964 -1.421722 -0.000014 0.000000 0.000000 0.000000 0.000000 -0.593809 -58.021617 2.677909 7.212932 8.540938 -2.542513 1.243022 1.559122 -1.269404 0.000000 0.000000 0.000000 0.000000 0.000000 0.000000 1.253382 1.547073 -1.250004 -3.329428 15.130600 3.838446 -0.489756 28.792891 -3.531863 0.000000 0.000000 0.000000 1.253382 1.547073 -1.250004 -0.147711 4.417821 0.976165 0.000000 0.000000 0.000000 -52.038528 3.649934 -38.886979 -179.999978 -75.537623 -179.999978 0.000000 0.000000 0.000000 1.253382 1.547073 -1.250004 2.216888 9.379418 -4.261204 0.000000 0.000000 0.000000 -58.586016 44.253694 82.093867 179.999923 77.091847 -179.999937 0.000000 0.000000 0.000000 
